<?xml version="1.0" encoding="UTF-8" standalone="no"?><!DOCTYPE svg PUBLIC "-//W3C//DTD SVG 1.1//EN" "http://www.w3.org/Graphics/SVG/1.1/DTD/svg11.dtd"><svg width="100%" height="100%" viewBox="0 0 30 22" version="1.1" xmlns="http://www.w3.org/2000/svg" xmlns:xlink="http://www.w3.org/1999/xlink" xml:space="preserve" xmlns:serif="http://www.serif.com/" style="fill-rule:evenodd;clip-rule:evenodd;stroke-linejoin:round;stroke-miterlimit:1.41421;"><g><path d="M6,20c5.98,-1.328 11.98,-1.333 18,0l0,-9c-6.024,-1.348 -12.024,-1.345 -18,0l0,9Z" style="fill:url(#_Linear1);"/><path d="M14,17l-8,3l0,-6.333l-4,-1.667l0,-10l12,5l0,10Z" style="fill:#ffe400;"/><path d="M16,17l0,-10l12,-5l0,10l-4,1.667l0,6.333l-8,-3Z" style="fill:#ffe400;"/><g><path d="M14,17l-8,-3.333l0,-2.667l8,-3l0,9Z" style="fill:url(#_Linear2);"/><path d="M24,11l0,2.667l-8,3.333l0,-9l8,3Z" style="fill:url(#_Linear3);"/></g></g><defs><linearGradient id="_Linear1" x1="0" y1="0" x2="1" y2="0" gradientUnits="userSpaceOnUse" gradientTransform="matrix(18,0,0,10.0101,6,14.995)"><stop offset="0" style="stop-color:#000;stop-opacity:0.15"/><stop offset="0.5" style="stop-color:#000;stop-opacity:0"/><stop offset="1" style="stop-color:#000;stop-opacity:0.15"/></linearGradient><linearGradient id="_Linear2" x1="0" y1="0" x2="1" y2="0" gradientUnits="userSpaceOnUse" gradientTransform="matrix(8,0,0,-9,6,12.5)"><stop offset="0" style="stop-color:#fc0;stop-opacity:1"/><stop offset="1" style="stop-color:#ffe100;stop-opacity:1"/></linearGradient><linearGradient id="_Linear3" x1="0" y1="0" x2="1" y2="0" gradientUnits="userSpaceOnUse" gradientTransform="matrix(-8,0,0,-9,24,12.5)"><stop offset="0" style="stop-color:#fc0;stop-opacity:1"/><stop offset="1" style="stop-color:#ffe100;stop-opacity:1"/></linearGradient></defs></svg>