<svg xmlns="http://www.w3.org/2000/svg" viewBox="0 0 623.62 255.12"><defs><style>.cls-1{fill:#fff;}.cls-2{fill:#3b3e40;}.cls-3{fill:#f26851;}</style></defs><title>ideato</title><g id="BG"><rect class="cls-1" width="623.62" height="255.12"/></g><g id="Logo"><path class="cls-2" d="M191.92,177.9H177V106.49h14.92ZM175,85.61a9.55,9.55,0,1,1,2.8,6.71A9.15,9.15,0,0,1,175,85.61Z"/><path class="cls-2" d="M219,168.77q-10.07-10.07-10.07-26.85c0-11,3.36-20,10.25-26.48a34.68,34.68,0,0,1,24.61-9.88c9.51,0,17.15,4.1,22.93,12.12V78.34H281.6v99.38H266.69V166.9c-5.59,7.83-13.61,11.75-24.24,11.75-8.76.19-16.78-3.17-23.49-9.88Zm11.56-9.51A21.11,21.11,0,0,0,246,165.6a19.77,19.77,0,0,0,14.92-6.53c4.1-4.29,6.15-9.88,6.15-16.59s-2.05-12.49-6.15-17a19.87,19.87,0,0,0-15.1-6.9,20.29,20.29,0,0,0-15.48,6.9,24,24,0,0,0-6.53,17.15c.19,6.71,2.42,12.31,6.71,16.59Z"/><path class="cls-2" d="M370,148.82H314a16.39,16.39,0,0,0,7.09,12.49A24.48,24.48,0,0,0,336,166c8.95,0,15.66-2.8,20.32-8.39l8.58,9.32c-7.64,8-17.71,11.93-30,11.93a35.62,35.62,0,0,1-25.54-10.07c-7.09-6.71-10.44-15.66-10.44-26.85s3.54-20.14,10.63-26.66a36.32,36.32,0,0,1,25.17-9.88,37.32,37.32,0,0,1,24.8,8.76c6.71,5.78,10.25,14,10.25,24.24v10.44ZM314,136.88h40.83c0-6-1.86-10.63-5.59-13.8a20.75,20.75,0,0,0-13.8-4.85,23.5,23.5,0,0,0-14.73,5A16.52,16.52,0,0,0,314,136.88Z"/><path class="cls-2" d="M444.19,177.9H430.58v-9.51c-6,7.09-13.8,10.63-23.68,10.63-7.46,0-13.61-2.05-18.46-6.34s-7.27-9.88-7.27-16.78q0-10.63,7.83-15.66c5.22-3.54,12.12-5.22,21.07-5.22h19.39v-2.61c0-9.51-5.22-14.17-15.85-14.17q-9.79,0-20.7,7.27l-6.71-9.32a45.73,45.73,0,0,1,29.46-10.25c8.39,0,15.29,2.05,20.51,6.34s8,11,8,20V177.9Zm-15.1-26.66v-6h-17c-10.81,0-16.22,3.36-16.22,10.25a8.92,8.92,0,0,0,4.1,8q3.92,2.8,11.19,2.8a19.37,19.37,0,0,0,12.49-4.1A12.8,12.8,0,0,0,429.09,151.24Z"/><path class="cls-3" d="M482.79,118.61v36.17a11.84,11.84,0,0,0,2.61,8,9.44,9.44,0,0,0,7.46,3c3.17,0,6.34-1.49,9.32-4.66l6.15,10.63a26,26,0,0,1-17.53,7.09,22.82,22.82,0,0,1-16.41-6.71q-6.71-6.71-6.71-17.9V118.61h-8.95V106.49h8.95V84.12H482.6v22.37h18.83v12.12Z"/><path class="cls-3" d="M552.52,165.6a22.07,22.07,0,0,0,16.22-6.53c4.29-4.29,6.34-9.88,6.34-16.78s-2.05-12.49-6.34-16.78a23.42,23.42,0,0,0-32.44,0C532,129.8,530,135.39,530,142.29s2.05,12.49,6.34,16.78A22.07,22.07,0,0,0,552.52,165.6Zm0,13.24c-10.81,0-19.58-3.54-26.85-10.63a35.75,35.75,0,0,1-10.81-26.1A35,35,0,0,1,525.67,116q10.63-10.63,26.85-10.63,15.94,0,26.85,10.63A35.59,35.59,0,0,1,590,142.1a35.59,35.59,0,0,1-10.63,26.1C572.1,175.29,563.34,178.83,552.52,178.83Z"/><path class="cls-3" d="M69.42,134.09l2.42.75-1.49,2.05L47,166l17.71,12.87,20.32-31,1.49-2.05,1.49,2.05,20.32,31L126.1,166l-22.93-28.9L101.68,135l2.42-.75,35.8-9.88-6.71-20.88L98.51,116.56l-2.61.75v-2.61l1.86-36.92h-22l1.68,37.1v2.61L75,116.75,40.33,103.69l-6.71,20.88,35.8,9.51Z"/></g></svg>